<?xml version="1.0" encoding="utf-8"?>
<!-- Generator: Adobe Illustrator 15.0.0, SVG Export Plug-In . SVG Version: 6.00 Build 0)  -->
<!DOCTYPE svg PUBLIC "-//W3C//DTD SVG 1.1//EN" "http://www.w3.org/Graphics/SVG/1.1/DTD/svg11.dtd">
<svg version="1.1" id="Layer_1" xmlns="http://www.w3.org/2000/svg" xmlns:xlink="http://www.w3.org/1999/xlink" x="0px" y="0px"
	 width="26px" height="21px" viewBox="0 0 26 21" enable-background="new 0 0 26 21" xml:space="preserve">
<path d="M26,2.691C26,3.966,24.967,5,23.691,5H2.309C1.033,5,0,3.966,0,2.691V2.308C0,1.033,1.033,0,2.309,0h21.382
	C24.967,0,26,1.033,26,2.308V2.691z"/>
<path d="M26,10.691C26,11.966,24.967,13,23.691,13H2.309C1.033,13,0,11.966,0,10.691v-0.383C0,9.033,1.033,8,2.309,8h21.382
	C24.967,8,26,9.033,26,10.308V10.691z"/>
<path d="M26,18.691C26,19.966,24.967,21,23.691,21H2.309C1.033,21,0,19.966,0,18.691v-0.383C0,17.033,1.033,16,2.309,16h21.382
	C24.967,16,26,17.033,26,18.308V18.691z"/>
</svg>
